<?xml version="1.0" standalone="no"?>
<!DOCTYPE svg PUBLIC "-//W3C//DTD SVG 1.1//EN" "http://www.w3.org/Graphics/SVG/1.1/DTD/svg11.dtd" >
<!--
2013-9-30: Created.
-->
<svg>
<metadata>
Created by iconfont
</metadata>
<defs>

<font id="iconfont" horiz-adv-x="1024" >
  <font-face
    font-family="iconfont"
    font-weight="500"
    font-stretch="normal"
    units-per-em="1024"
    ascent="896"
    descent="-128"
  />
    <missing-glyph />
    
    <glyph glyph-name="time-circle" unicode="&#59268;" d="M512 832C264.6 832 64 631.4 64 384s200.6-448 448-448 448 200.6 448 448S759.4 832 512 832z m0-820c-205.4 0-372 166.6-372 372s166.6 372 372 372 372-166.6 372-372-166.6-372-372-372zM686.7 257.4L544.1 360.5V608c0 4.4-3.6 8-8 8H488c-4.4 0-8-3.6-8-8v-275.4c0-2.6 1.2-5 3.3-6.5l165.4-120.6c3.6-2.6 8.6-1.8 11.2 1.7l28.6 39c2.6 3.7 1.8 8.7-1.8 11.2z"  horiz-adv-x="1024" />

    
    <glyph glyph-name="bianjixuanzhong" unicode="&#58936;" d="M964.900571 844.288a73.142857 73.142857 0 0 0 0-103.424L551.204571 327.094857 447.634286 430.518857 861.476571 844.288a73.142857 73.142857 0 0 0 103.424 0zM344.283429 223.670857l51.712 155.062857 103.424-103.350857-155.062858-51.712zM512 896v-146.285714H146.285714v-731.428572h731.428572V310.857143h146.285714v-438.857143H0V896h512z"  horiz-adv-x="1024" />

    
    <glyph glyph-name="bianjihei" unicode="&#58937;" d="M964.900571 844.288a73.142857 73.142857 0 0 0 0-103.424L551.204571 327.094857 447.634286 430.518857 861.476571 844.288a73.142857 73.142857 0 0 0 103.424 0zM344.283429 223.670857l51.712 155.062857 103.424-103.350857-155.062858-51.712zM512 896v-146.285714H146.285714v-731.428572h731.428572V310.857143h146.285714v-438.857143H0V896h512z"  horiz-adv-x="1024" />

    
    <glyph glyph-name="jiabai" unicode="&#58938;" d="M480 416V704h64v-288H832v-64H544V64h-64V352H192v64h288zM0 896h1024v-1024H0V896z m64-64v-896h896V832H64z"  horiz-adv-x="1024" />

    
    <glyph glyph-name="bianzu" unicode="&#58939;" d="M512 384m-512 0a512 512 0 1 1 1024 0 512 512 0 1 1-1024 0ZM615.424 384l155.209143-155.136-103.497143-103.497143L512 280.576l-155.136-155.209143L253.366857 228.937143 408.576 384 253.366857 539.136 356.937143 642.633143 512 487.424l155.136 155.209143 103.497143-103.497143L615.424 384z"  horiz-adv-x="1024" />

    
    <glyph glyph-name="jianhei" unicode="&#58940;" d="M192 416h640v-64H192v64zM0 896h1024v-1024H0V896z m64-64v-896h896V832H64z"  horiz-adv-x="1024" />

    
    <glyph glyph-name="jiahei" unicode="&#58941;" d="M480 416V704h64v-288H832v-64H544V64h-64V352H192v64h288zM0 896h1024v-1024H0V896z m64-64v-896h896V832H64z"  horiz-adv-x="1024" />

    
    <glyph glyph-name="jianbai" unicode="&#58942;" d="M192 416h640v-64H192v64zM0 896h1024v-1024H0V896z m64-64v-896h896V832H64z"  horiz-adv-x="1024" />

    
    <glyph glyph-name="jiantoushang" unicode="&#58943;" d="M140.032 128h74.944a16 16 0 0 1 12.928 6.592L512 526.208l284.16-391.616a16 16 0 0 1 12.8-6.592h75.008c6.528 0 10.304 7.424 6.528 12.672l-352.64 486.144a31.936 31.936 0 0 1-51.648 0l-352.64-486.144a7.936 7.936 0 0 1 6.4-12.672z"  horiz-adv-x="1024" />

    
    <glyph glyph-name="fenzuguanli" unicode="&#58944;" d="M64 320h382.08v-384H64V320z m63.68-64v-256h254.72v256h-254.72zM64 832h382.08v-384H64V832z m63.68-64v-256h254.72V768h-254.72zM573.44 320h382.08v-384H573.44V320z m63.68-64v-256h254.72v256h-254.72z m-128 350.272l225.152 225.152 226.304-226.24-225.152-225.152-226.24 226.24z m226.112-135.936l135.04 135.04-135.744 135.744-135.04-135.04 135.68-135.744z"  horiz-adv-x="1024" />

    
    <glyph glyph-name="jiantouxia" unicode="&#58945;" d="M884.032 640H808.96a16 16 0 0 1-12.928-6.592L512 241.792 227.84 633.408A16 16 0 0 1 215.04 640H139.968a8 8 0 0 1-6.528-12.672l352.64-486.144c12.8-17.6 38.976-17.6 51.648 0l352.64 486.144a7.936 7.936 0 0 1-6.4 12.672z"  horiz-adv-x="1024" />

    
    <glyph glyph-name="renyuanguanli" unicode="&#58946;" d="M651.648 224A320 320 0 0 0 832-64h-64a256 256 0 1 1-512 0H192a320 320 0 0 0 180.352 288 320 320 0 1 0 279.296 0zM512 256a256 256 0 1 1 0 512 256 256 0 0 1 0-512z"  horiz-adv-x="1024" />

    
    <glyph glyph-name="shebeiguanli" unicode="&#58947;" d="M64 832h896v-576H64V832z m64-64v-448h768V768H128z m-64-576h896v-256H64v256z m64-64v-128h768v128H128z m64 384h64v-192H192V512z m192 64h64v-256H384V576z m192 64h64v-320H576V640z m192 64h64v-384h-64V704z"  horiz-adv-x="1024" />

    
    <glyph glyph-name="shanchuxuanzhong" unicode="&#58948;" d="M768-42.666667V554.666667H682.666667v-597.333334h85.333333z m85.333333 0v-85.333333H170.666667V640h682.666666v-682.666667z m-256 0V554.666667H426.666667v-597.333334h170.666666z m-256 0V554.666667H256v-597.333334h85.333333zM85.333333 768h853.333334v-85.333333H85.333333v85.333333zM426.666667 896h170.666666v-85.333333H426.666667V896z"  horiz-adv-x="1024" />

    
    <glyph glyph-name="tianjia" unicode="&#58949;" d="M460.8 435.2V896h102.4v-460.8H1024v-102.4H563.2V-128h-102.4V332.8H0v102.4h460.8z"  horiz-adv-x="1024" />

    
    <glyph glyph-name="tianjiaxuanzhong" unicode="&#58951;" d="M460.8 435.2V896h102.4v-460.8H1024v-102.4H563.2V-128h-102.4V332.8H0v102.4h460.8z"  horiz-adv-x="1024" />

    
    <glyph glyph-name="touxiang" unicode="&#58952;" d="M511.999829 384.000171m-511.999829 0a511.999829 511.999829 0 1 1 1023.999659 0 511.999829 511.999829 0 1 1-1023.999659 0ZM409.395064 236.44182a238.933254 238.933254 0 1 0 205.209531 0 478.139574 478.139574 0 0 0 284.876705-187.118871A510.839296 510.839296 0 0 0 511.999829-127.999659a510.839296 510.839296 0 0 0-387.481471 177.322608 478.139574 478.139574 0 0 0 284.876706 187.118871z"  horiz-adv-x="1024" />

    
    <glyph glyph-name="weihuguanli" unicode="&#58953;" d="M488.576 267.776l-327.36-327.36L70.4 31.36l327.296 327.36-152.64 152.576-182.4 91.52 136.384 136.448L290.496 556.8l152.576-152.64 38.144 38.144a258.24 258.24 0 0 0 40.448 313.344 258.24 258.24 0 0 0 313.28 40.448l-176.832-176.896 90.88-90.944 176.96 176.832a258.24 258.24 0 0 0-40.512-313.28 258.24 258.24 0 0 0-313.28-40.448l-38.144-38.144 121.728-121.664 45.44 45.44 228.352-228.288-136.448-136.448-228.288 228.288 45.44 45.44-121.664 121.792z m-45.44 45.44L321.152 191.36l121.856 121.856z m45.44 45.44l73.472 73.6 43.008-25.344a193.664 193.664 0 0 1 234.88 30.4c40.192 40.128 59.52 94.208 56.704 147.584l-147.84-147.84L567.04 619.072l147.776 147.84a194.048 194.048 0 0 1-147.648-56.704 193.664 193.664 0 0 1-30.336-234.944l25.28-42.944-73.472-73.6z"  horiz-adv-x="1024" />

    
    <glyph glyph-name="shujuzhanshi" unicode="&#58954;" d="M128 704h64v-768H128V704z m384-384h64v-384H512V320zM320 384h64v-448H320V384z m384 128h64v-576h-64V512z m192 320h64v-896h-64V832z"  horiz-adv-x="1024" />

    
    <glyph glyph-name="xiaoxitixing" unicode="&#58955;" d="M816 128h-24.021333v340.010667a279.936 279.936 0 0 1-240 277.077333v38.912a39.978667 39.978667 0 1 1-79.957334 0v-38.912a279.936 279.936 0 0 1-240.042666-277.077333V128h-23.978667a32 32 0 0 1-32-32v-32c0-4.394667 3.584-8.021333 8.021333-8.021333h215.978667A112.085333 112.085333 0 0 1 512-56.021333a112.085333 112.085333 0 0 1 112 112h216.021333a8.021333 8.021333 0 0 1 7.978667 8.021333v32a32 32 0 0 1-32 32zM512 7.978667a48 48 0 0 0-48 48h96c0-26.453333-21.504-48-48-48zM304 128v340.010667c0 55.594667 21.589333 107.776 60.885333 147.072A206.549333 206.549333 0 0 0 512 676.010667c55.594667 0 107.818667-21.589333 147.114667-60.928a206.549333 206.549333 0 0 0 60.885333-147.072V128h-416z"  horiz-adv-x="1024" />

    
    <glyph glyph-name="wenjian" unicode="&#58956;" d="M0 704h1024v-832H0zM0 896h448l320-192H0z"  horiz-adv-x="1024" />

    
    <glyph glyph-name="xuanzhong" unicode="&#58957;" d="M0 896h1024v-1024H0zM392 192l452.48 452.48 45.312-45.248-452.544-452.48-45.248-45.312-226.304 226.304 45.248 45.248 181.056-181.056z"  horiz-adv-x="1024" />

    
    <glyph glyph-name="weizhiguanli" unicode="&#58958;" d="M645.632 122.048c146.176-13.568 250.368-48.768 250.368-90.048 0-52.992-171.904-96-384-96s-384 43.008-384 96c0 41.28 104.192 76.48 250.368 90.048C243.456 259.328 176 384 176 496 176 712.512 295.488 832 512 832s336-119.488 336-336c0-112-67.456-236.672-202.368-373.952z m-86.144 5.248c151.04 142.272 224.512 266.304 224.512 368.704C784 677.12 693.12 768 512 768S240 677.12 240 496c0-102.4 73.536-226.432 224.512-368.704a1541.76 1541.76 0 0 0 94.976 0z m-119.04-65.024c-70.592-3.52-134.72-12.032-184.448-24.448-7.488-1.92-14.592-3.84-21.12-5.824 6.528-1.92 13.632-3.904 21.12-5.76 66.048-16.576 157.696-26.24 256-26.24s189.952 9.664 256 26.24c7.488 1.856 14.592 3.84 21.12 5.76a463.232 463.232 0 0 1-21.12 5.76c-49.728 12.48-113.92 20.992-184.448 24.512-22.4-20.48-46.272-41.28-71.552-62.272a2041.152 2041.152 0 0 0-71.552 62.272zM512 320a192 192 0 1 0 0 384 192 192 0 0 0 0-384z m0 64a128 128 0 1 1 0 256 128 128 0 0 1 0-256z"  horiz-adv-x="1024" />

    
    <glyph glyph-name="renwuguanli" unicode="&#58959;" d="M64 832h640v-640H64V832z m64-64v-512h512V768H128z m640 64h64v-768H64v64h704V832z m128 0h64v-896H64v64h832V832z"  horiz-adv-x="1024" />

    
    <glyph glyph-name="search" unicode="&#58960;" d="M966.436571-7.460571L669.622857 289.353143c46.08 59.538286 70.948571 132.388571 70.948572 208.969143a340.845714 340.845714 0 0 1-100.425143 242.395428A340.333714 340.333714 0 0 1 397.677714 841.142857a340.845714 340.845714 0 0 1-242.395428-100.425143A340.114286 340.114286 0 0 1 54.857143 498.322286c0-91.574857 35.84-177.737143 100.425143-242.468572a340.114286 340.114286 0 0 1 242.395428-100.425143 340.114286 340.114286 0 0 1 208.822857 70.875429l296.813715-296.667429c3.657143-3.657143 9.581714-3.657143 13.238857 0l49.810286 49.737143a9.362286 9.362286 0 0 1 0 13.165715z m-387.657142 324.754285a254.610286 254.610286 0 0 0-181.101715-75.044571 254.610286 254.610286 0 0 0-181.028571 75.044571 254.610286 254.610286 0 0 0-74.971429 180.955429c0 68.388571 26.697143 132.754286 74.971429 181.028571a254.610286 254.610286 0 0 0 181.028571 75.044572c68.388571 0 132.754286-26.550857 181.028572-74.971429a254.610286 254.610286 0 0 0 75.044571-181.028571c0-68.388571-26.697143-132.754286-75.044571-181.028572z"  horiz-adv-x="1024" />

    
    <glyph glyph-name="shanchuheise" unicode="&#58961;" d="M768-42.666667V554.666667H682.666667v-597.333334h85.333333z m85.333333 0v-85.333333H170.666667V640h682.666666v-682.666667z m-256 0V554.666667H426.666667v-597.333334h170.666666z m-256 0V554.666667H256v-597.333334h85.333333zM85.333333 768h853.333334v-85.333333H85.333333v85.333333zM426.666667 896h170.666666v-85.333333H426.666667V896z"  horiz-adv-x="1024" />

    
    <glyph glyph-name="zhanweitu" unicode="&#58962;" d="M1100.48 713.3696L1123.104 736l9.0496-9.0496-22.624-22.6304 22.624-22.624-9.0496-9.0496-22.624 22.624-22.6304-22.624L1068.8 681.696l22.6304 22.624L1068.8 726.9504 1077.8496 736l22.6304-22.6304zM219.8016 754.5536v19.392h7.7568v-19.392h19.392v-7.7568h-19.392v-19.392h-7.7568v19.392h-19.392v7.7568h19.392zM1126.4 377.6v-12.8h-6.4v12.8h6.4z m0-32v-12.8h-6.4v12.8h6.4z m19.2 6.4h-12.8v6.4h12.8v-6.4z m-32 0h-12.8v6.4h12.8v-6.4z m27.6992 16.7744l-9.0496-9.0496-4.5248 4.5248 9.0496 9.0496 4.5248-4.5248z m-22.624-22.624l-9.0496-9.0496-4.5248 4.5248 9.0496 9.0496 4.5248-4.5248z m-9.0496 27.1488l9.0496-9.0496-4.5248-4.5248-9.0496 9.0496 4.5248 4.5248z m22.624-22.624l9.0496-9.0496-4.5248-4.5248-9.0496 9.0496 4.5248 4.5248zM417.536 888.2176c4.0512 4.0512 8.4224 6.272 13.1136 6.4 4.4992 0.192 8.6784-1.5872 12.48-5.3888 2.8544-2.8544 4.4992-6.144 5.0688-9.76 0.128-1.3888 0-4.8128-0.32-10.0736-0.192-2.4704 0-4.5568 0.512-6.336 0.5696-2.2144 1.7728-4.1792 3.4816-5.888l1.4592-1.4592-5.1328-5.1328-1.4592 1.4592c-2.0864 2.0928-3.5456 4.3072-4.3072 6.72-1.0752 2.72-1.3312 7.2832-0.9472 13.7408 0 2.0288-0.064 3.488-0.128 4.4352-0.384 2.7904-1.3952 5.0688-3.168 6.848-2.5344 2.5344-5.1968 3.8016-7.9808 3.8016-3.0464 0-5.8304-1.3952-8.4928-4.0576-3.104-3.104-4.4352-6.464-3.9296-10.1376 0.448-3.104 2.1568-6.208 5.2608-9.312l-5.0688-5.0688c-4.4352 4.4352-6.72 9.248-6.9056 14.3808-0.192 5.3888 1.9648 10.3296 6.464 14.8288z m37.696-39.4752a5.1328 5.1328 0 0 0 3.8016 1.6512c1.3952 0 2.6624-0.512 3.7376-1.5872a5.1968 5.1968 0 0 0 1.6448-3.8016 5.6512 5.6512 0 0 0-1.6448-3.8016 5.1968 5.1968 0 0 0-3.8016-1.6448 5.2096 5.2096 0 0 0-3.8656 1.5808 4.8832 4.8832 0 0 0-1.5168 3.8016c-0.064 1.4592 0.5056 2.6624 1.6448 3.8016zM1217.344 387.3088c4.2624-2.4576 7.0656-5.5808 8.2112-9.44 1.152-3.68 0.6144-7.5328-1.6896-11.52-1.728-2.9952-4.0896-5.0944-6.9504-6.368-1.1264-0.4096-3.9872-1.0688-8.4096-1.9712a15.424 15.424 0 0 1-5.1392-1.824c-1.7088-0.96-3.0656-2.4-4.1024-4.192l-0.8832-1.536-5.3888 3.1168 0.8832 1.5296c1.2672 2.1952 2.784 3.8912 4.608 5.056 2.016 1.4976 5.7344 2.72 11.168 3.84 1.6832 0.448 2.8736 0.8192 3.648 1.088 2.2208 0.928 3.8848 2.2784 4.96 4.1408 1.536 2.656 1.9968 5.1392 1.376 7.4496-0.672 2.5216-2.4448 4.5184-5.2416 6.1312-3.2576 1.8816-6.336 2.24-9.2608 1.0048-2.4768-1.056-4.6656-3.1616-6.5472-6.4256l-5.3184 3.072c2.688 4.6592 6.1696 7.616 10.368 8.9088 4.4224 1.3568 8.992 0.6656 13.7152-2.0608z m-24.3136-39.968a4.3968 4.3968 0 0 0 2.208-2.7776 4.3968 4.3968 0 0 0-0.48-3.4496 4.4544 4.4544 0 0 0-2.784-2.208 4.8448 4.8448 0 0 0-3.5136 0.5248 4.4544 4.4544 0 0 0-2.208 2.7776 4.4672 4.4672 0 0 0 0.4544 3.552 4.1856 4.1856 0 0 0 2.816 2.1056c1.1904 0.3712 2.3104 0.1664 3.5072-0.5248zM436.864-76.8H214.4c-44.1856 0-80 35.8144-80 80S170.2144 83.2 214.4 83.2h70.4c44.1856 0 80 35.8144 80 80S328.9856 243.2 284.8 243.2H185.184A481.4592 481.4592 0 0 0 172.8 352c0 42.0096 5.3952 82.7648 15.5392 121.6H80C35.8144 473.6 0 509.4144 0 553.6S35.8144 633.6 80 633.6h184.0384C351.2704 753.8176 492.9024 832 652.8 832c238.9568 0 437.1264-174.6112 473.888-403.2H1046.4c-44.1856 0-80-35.8144-80-80S1002.2144 268.8 1046.4 268.8h204.8c44.1856 0 80-35.8144 80-80s-35.8144-80-80-80h-184.48c-83.4432-141.7088-237.5744-236.8-413.92-236.8-77.6704 0-151.0336 18.4448-215.936 51.2zM792.6272 582.4H851.2a25.6 25.6 0 0 0 25.6-25.6v-448a25.6 25.6 0 0 0-25.6-25.6H637.5488a25.6 25.6 0 0 0-24.192 33.9712l155.0784 448a25.6 25.6 0 0 0 24.192 17.2288zM544 601.6v6.4a12.8 12.8 0 0 0 12.8 12.8h345.6a12.8 12.8 0 0 0 12.8-12.8v-422.4a12.8 12.8 0 0 0-12.8-12.8h-6.4V588.8a12.8 12.8 0 0 1-12.8 12.8H544z m352 0v6.4a6.4 6.4 0 0 1 6.4-6.4h-6.4zM441.6 582.4h409.6a25.6 25.6 0 0 0 25.6-25.6v-448a25.6 25.6 0 0 0-25.6-25.6H441.6a25.6 25.6 0 0 0-25.6 25.6V556.8a25.6 25.6 0 0 0 25.6 25.6z m0-19.2a6.4 6.4 0 0 1-6.4-6.4v-448a6.4 6.4 0 0 1 6.4-6.4h409.6a6.4 6.4 0 0 1 6.4 6.4V556.8a6.4 6.4 0 0 1-6.4 6.4H441.6zM649.6 217.6a48 48 0 1 1 0 96 48 48 0 0 1 0-96z m0 19.2a28.8 28.8 0 1 0 0 57.6 28.8 28.8 0 0 0 0-57.6zM953.6 828.8a28.8 28.8 0 1 1 0 57.6 28.8 28.8 0 0 1 0-57.6z m0 6.4a22.4 22.4 0 1 0 0 44.8 22.4 22.4 0 0 0 0-44.8zM172.8 89.6a57.6 57.6 0 1 1 0 115.2 57.6 57.6 0 0 1 0-115.2z m0 12.8a44.8 44.8 0 1 0 0 89.6 44.8 44.8 0 0 0 0-89.6zM754.56 422.4l27.1488-27.1552-18.0992-18.0992-27.1552 27.1552-27.1552-27.1552L691.2 395.2448 718.3552 422.4 691.2 449.5552l18.0992 18.0992 27.1552-27.1552 27.1552 27.1552 18.0992-18.0992L754.56 422.4z m-179.2 0l27.1488-27.1552-18.0992-18.0992-27.1552 27.1552-27.1552-27.1552L512 395.2448 539.1552 422.4 512 449.5552l18.0992 18.0992 27.1552-27.1552 27.1552 27.1552 18.0992-18.0992L575.36 422.4z"  horiz-adv-x="1331" />

    
    <glyph glyph-name="xingzhuangjiehe" unicode="&#58963;" d="M671.597349 201.142857A365.714286 365.714286 0 0 0 877.71392-128H804.571063a292.571429 292.571429 0 1 1-585.142857 0H146.285349a365.714286 365.714286 0 0 0 206.116571 329.142857 365.714286 365.714286 0 1 0 319.195429 0zM511.999634 237.714286a292.571429 292.571429 0 1 1 0 585.142857 292.571429 292.571429 0 0 1 0-585.142857z"  horiz-adv-x="1024" />

    
    <glyph glyph-name="suo" unicode="&#58964;" d="M223.153231 659.692308C271.753846 798.798769 382.818462 896 512 896c129.181538 0 240.246154-97.201231 288.846769-236.307692H905.846154a78.769231 78.769231 0 0 0 78.769231-78.769231v-630.153846a78.769231 78.769231 0 0 0-78.769231-78.769231H118.153846a78.769231 78.769231 0 0 0-78.769231 78.769231V580.923077a78.769231 78.769231 0 0 0 78.769231 78.769231h104.999385zM820.775385 580.923077H118.153846v-630.153846h787.692308V580.923077H820.775385zM716.406154 659.692308C674.264615 755.790769 595.968 817.230769 512 817.230769c-83.968 0-162.343385-61.44-204.406154-157.538461h408.812308zM512 108.307692a157.538462 157.538462 0 1 0 0 315.076923 157.538462 157.538462 0 0 0 0-315.076923z m0 78.769231a78.769231 78.769231 0 1 1 0 157.538462 78.769231 78.769231 0 0 1 0-157.538462z"  horiz-adv-x="1024" />

    
    <glyph glyph-name="biaoshilei_liandongAPIbeifen" unicode="&#58966;" d="M0 896v-950.857143h438.857143v73.142857H73.142857V530.285714h950.857143v-365.714285h73.142857V896H0z m1024-292.571429H73.142857V822.857143h950.857143v-219.428572z m-438.857143-658.285714h146.285714v-73.142857H512v219.428571h219.428571v-73.142857H585.142857v-73.142857z m292.571429 146.285714h219.428571v-219.428571h-219.428571v73.142857h146.285714v73.142857h-146.285714v73.142857z m0-73.142857v-73.142857h-146.285715v73.142857h146.285715z"  horiz-adv-x="1097" />

    
    <glyph glyph-name="caozuo-dingshiheyuyuebeifen" unicode="&#58967;" d="M859.488427 688.810667A475.050667 475.050667 0 0 1 522.42176 828.416a475.050667 475.050667 0 0 1-337.066667-139.605333A475.136 475.136 0 0 1 45.920427 351.744a474.88 474.88 0 0 1 139.605333-337.066667 475.050667 475.050667 0 0 1 337.066667-139.52 474.965333 474.965333 0 0 1 337.066666 139.605334 474.965333 474.965333 0 0 1 139.52 337.066666 474.965333 474.965333 0 0 1-139.605333 337.066667z m-337.066667-748.714667A412.16 412.16 0 0 0 110.77376 351.829333a412.16 412.16 0 0 0 411.648 411.648 412.16 412.16 0 0 0 411.733333-411.648 412.16 412.16 0 0 0-411.733333-411.733333zM550.752427 651.349333a32.426667 32.426667 0 0 1-64.938667 0v-313.856c0-17.92 14.506667-32.426667 32.426667-32.426666h352.426666a32.426667 32.426667 0 0 1 0 64.853333h-320V651.434667zM264.544427 837.376a32.426667 32.426667 0 1 1-45.909334 45.994667l-209.066666-209.066667a32.426667 32.426667 0 1 1 45.909333-45.909333l209.066667 209.066666z m768.341333-162.986667L823.819093 883.285333a32.426667 32.426667 0 1 1-45.909333-45.994666l209.066667-208.981334a32.426667 32.426667 0 0 1 45.909333 0 32.426667 32.426667 0 0 1 0 45.909334z"  horiz-adv-x="1042" />

    
    <glyph glyph-name="changjing-" unicode="&#58968;" d="M911.521315-50.583976H141.373493a71.908786 71.908786 0 0 0-71.830112 71.830111V475.671901c0 39.65211 32.256677 71.830112 71.830112 71.830112h769.990473c39.573435 0 71.830112-32.256677 71.830111-71.830112v-454.347091c0-39.65211-32.256677-71.908786-71.830111-71.908786zM141.373493 495.104582a19.432681 19.432681 0 0 1-19.432681-19.432681v-454.347091c0-10.699776 8.65423-19.275331 19.432681-19.275331h769.990473a19.668705 19.668705 0 0 1 19.432681 19.275331V475.671901a19.668705 19.668705 0 0 1-19.432681 19.432681H141.452168v-0.078675zM111.634411 509.4234a47.755616 47.755616 0 0 0-46.418145 36.977165l-25.175943 111.718246a47.598267 47.598267 0 0 0 35.954394 56.803221L874.54415 894.772673a47.204893 47.204893 0 0 0 56.80322-35.875719l25.175943-111.718245a47.126218 47.126218 0 0 0-6.136636-35.797044 46.575494 46.575494 0 0 0-29.739082-21.006177L122.019487 510.524847a49.171763 49.171763 0 0 0-10.385076-1.101447zM92.280405 664.884846L115.253452 562.764928l790.288577 177.962445-24.389194 101.805219L92.359079 664.884846z m17.701834-323.904238h832.93033v-52.476106H109.982239V340.901933zM253.170413 339.643136L461.34399 547.816712l37.134515-37.134515-208.173576-208.173577-37.134516 37.134516z m348.529457-11.565199L816.560807 543.096223l37.134515-37.134516-214.860936-214.860936-37.134516 37.055841z"  horiz-adv-x="1024" />

    


  </font>
</defs>
</svg>
